<?xml version="1.0" encoding="utf-8"?>
<!-- Generator: Adobe Illustrator 25.1.0, SVG Export Plug-In . SVG Version: 6.00 Build 0)  -->
<svg version="1.1" id="Layer_1" xmlns="http://www.w3.org/2000/svg" xmlns:xlink="http://www.w3.org/1999/xlink" x="0px" y="0px"
	 viewBox="0 0 52 56" style="enable-background:new 0 0 52 56;" xml:space="preserve">
<style type="text/css">
	.st0{fill:#384B61;}
</style>
<g>
	<g>
		<path class="st0" d="M52,38c0,3.3-2.7,6-6,6H6c-3.3,0-6-2.7-6-6c0-3.3,2.7-6,6-6c0,0,0-12,0-12C6,9,15,0,26,0c11,0,20,9,20,20v12
			C49.3,32,52,34.7,52,38z M46,36c-2.2,0-4-1.8-4-4V20c0-8.8-7.2-16-16-16c-8.8,0-16,7.2-16,16v12c0,2.2-1.8,4-4,4c-1.1,0-2,0.9-2,2
			c0,1.1,0.9,2,2,2h40c1.1,0,2-0.9,2-2C48,36.9,47.1,36,46,36z M17,47h4c0,2.8,2.2,5,5,5s5-2.2,5-5h4c0,5-4,9-9,9S17,52,17,47z"/>
	</g>
</g>
</svg>
